# xmcd
#
# Track frame offsets:
#	150
#	23789
#	60139
#	118271
#	139420
#	162963
#	185378
#	200692
#	231080
#	257742
#
# Disc length: 4354 seconds
#
# Revision: 1
# Processed by: cddbd v1.4PL0 Copyright (c) Steve Scherf et al.
# Submitted via: EasyCDDAExtractor 5.0.6
#
DISCID=8911000a
DTITLE=Blues Traveler - Live from the Fall
DYEAR=1996
DGENRE=Blues-Rock
TTITLE0=Love And Greed
TTITLE1=Mulling It Over
TTITLE2=Closing Down The Park
TTITLE3=Regarding Steven
TTITLE4=New York Prophisie
TTITLE5=100 Years
TTITLE6=Crash Burn
TTITLE7=Gina
TTITLE8=But Anyway
TTITLE9=Mountain Cry
EXTD=
EXTT0=
EXTT1=
EXTT2=
EXTT3=
EXTT4=
EXTT5=
EXTT6=
EXTT7=
EXTT8=
EXTT9=
PLAYORDER=
